<svg viewBox="0 0 1062.993 297.63797" xmlns="http://www.w3.org/2000/svg"><path d="M555.596 8.6l-36.85 283.5h79.37l14.17-178.6 36.85 178.6h62.36l36.85-178.6 14.03 178.6h79.51L805.036 8.6h-85.04l-39.69 170.1-39.68-170.1zm326.1 0v283.5h181.4v-59.53h-104.9V8.67zm-700.3-.1h-96.38L-.024 292h85.04l11.34-51.02h73.7l11.34 51.02h85.04zm-48.19 62.36l25.51 116.2-51.02.001zm337.39 17.04c-70.43-61.6-180.3-36.56-181.4 19.84-15.98-104.6 110.6-126.5 181.4-93.54 1.262 16.8 2.527 34.89.007 73.7z"/><path d="M412.096 121.3c-17.74-6.926-43.56-13.23-43.6-33.4-.015-8.241 3.375-17.19 19.83-22.65-56.69 5.669-75.6 74.63-12.9 108.9 10.93 5.974 29.9 12.31 29.9 32.82 0 23.96-26.32 32.62-43.63 32.25-28.76-.605-51.88-10.65-78.26-29.42v68.03c31.21 13.43 82.04 28.93 133 13.26 41.18-12.67 76.77-47.24 76.77-84.12.002-60.02-52.09-74.35-81.11-85.68z"/></svg>
