<svg viewBox="0 0 1024 1024" xmlns="http://www.w3.org/2000/svg"><path d="M858.2 221c1.119 2.53-3.377 21.75-9.2 25.5-17.37 21.43-42.86 33.98-67.6 44.9-13.35 5.45-36.76 13.61-54.3 18.1-29.46 7.894-62.1 14.65-91 18.2-81.92 10.24-165.2 9.963-247.1-.2-2.218.345-15.54-2.292-20.9-2.9-42.83-6.821-86.95-17.98-126.2-33.8-16.71-7.134-33.67-16-48.5-27.1-3.685-3.693-19.82-16.55-23.5-27.2-4.375-11.05-4.553-24.49 6.4-37.1 11.3-13.28 20.65-19.76 35.64-28.65 63.5-34.72 136.2-47.98 207.5-55.58 72.5-6.986 147.9-5.646 218.8 3.436 21.72 2.792 51.86 8.34 76.13 14.41 25.21 6.088 54.6 15.66 74.93 24.78 17.08 7.752 36.15 18.1 48.41 29.03 10.47 9.567 23.01 23.1 20.43 34.17z"/><path d="M857.9 420.5c-4.65 24.57-30.82 40.09-51.47 51.77-22.51 11.95-33.76 15.92-59.96 24.63-105 31.69-216.5 36.13-325.3 26.9-27.85-2.508-53.58-6.238-81.4-11.7-34.28-6.957-68.29-16.11-100.6-29.6-1.844-.766-17.73-8.044-23.7-11.7-7.174-3.535-18.72-11.85-23.5-15-10.21-8.074-20.12-17.97-24.3-28.9 1.824 5.287-4.008-13.77-2-8.6-.457-41.07-.074-83.86-.2-125.6 57.28 43.27 129.5 59.87 199 71.9 122.4 17.93 248.9 15 369.2-15.14 43.91-12.17 88.45-27.53 124.8-55.77-.189 42 .385 84.02-.3 126 .592-3.091 1.145-.646-.3.8z"/><path d="M850 492.3c13.37-15.26 6.391 10.38 8.1 18.68-.407 34.59.81 69.32-.6 103.8-8.17 27.64-36.54 42.3-60.05 54.64-62.13 28.94-131 41.3-198.4 47.54-70.57 6.532-143.1 3.994-212.5-3.678-65.44-11.04-135.2-23.83-191.5-62.2-16.46-11.93-33.41-30.31-29.9-52.65v-113.5c54.34 41.36 122.7 57.98 188.7 70.08 128.9 20.7 262.9 18.23 389.4-15.84 37.23-11.06 74.7-24.36 106.7-46.93z"/><path d="M858.1 678.7c-.194 42.1.392 84.22-.3 126.3-2.488 16.68-15.67 27.97-31.09 39.96-14.06 10.41-38.85 21.84-47.41 25.24-100.8 38.68-209.6 46.11-316.6 41.87-60.17-2.966-117.8-11.01-176.1-27.7-18.63-5.675-38.56-12.19-53.9-19.67-20.42-10.07-37.83-18.82-51.99-33.9-11.2-9.215-17.68-27.13-15.61-43.63v-109.1c61.09 45.71 138.1 62.35 212.1 73.41 122.2 16.32 248.3 12.01 367.6-20.14 39.94-11.87 80.12-26.79 113.3-52.67z"/></svg>
